
<svg xmlns="http://www.w3.org/2000/svg" width="848" height="526" viewBox="0 0 848 526" preserveAspectRatio="xMidYMid meet">
  <g transform="translate(0,526) scale(0.1,-0.1)">
    <path d="M4210 5248 c-52 -14 -85 -43 -108 -92 -23 -48 -28 -80 -37 -236 -6
    -102 -8 -144 -20 -300 -2 -41 -7 -133 -10 -205 -9 -192 -41 -282 -115 -320
    -26 -13 -158 -32 -361 -50 -150 -13 -244 44 -309 188 -18 39 -46 101 -62 137
    -17 36 -50 114 -75 174 -25 60 -49 116 -54 125 -4 9 -22 47 -39 86 -43 98 -75
    127 -160 146 -53 12 -124 -23 -155 -76 -41 -69 -35 -105 64 -408 123 -372 132
    -408 126 -457 -9 -76 -29 -96 -140 -140 -44 -18 -91 -36 -105 -40 -14 -5 -63
    -22 -109 -39 -100 -37 -131 -38 -175 -8 -18 12 -144 139 -281 282 -363 379
    -384 399 -431 413 -84 25 -136 7 -190 -63 -22 -30 -28 -46 -27 -86 2 -67 25
    -103 185 -290 291 -340 399 -482 394 -513 -8 -42 -31 -68 -143 -158 -145 -116
    -172 -132 -233 -134 -63 -2 -125 22 -285 111 -77 43 -165 91 -195 108 -30 16
    -82 46 -115 65 -70 41 -106 61 -235 132 -52 29 -99 56 -105 60 -20 15 -88 32
    -126 32 -91 -1 -165 -96 -148 -187 5 -25 16 -56 25 -71 15 -22 125 -104 329
    -244 162 -111 325 -226 372 -262 100 -76 117 -171 44 -248 -57 -61 -119 -74
    -304 -65 -84 4 -170 9 -192 10 -22 2 -98 7 -170 10 -72 4 -146 9 -165 11 -19
    2 -76 4 -126 5 -108 2 -150 -14 -198 -74 -27 -34 -31 -46 -30 -97 1 -68 30
    -116 86 -143 30 -14 189 -43 543 -97 77 -12 152 -23 166 -26 14 -2 41 -6 60
    -8 143 -18 242 -117 220 -218 -22 -94 -59 -120 -427 -293 -174 -82 -330 -159
    -345 -172 -54 -46 -64 -150 -19 -212 12 -17 40 -41 63 -52 53 -27 123 -20 218
    21 37 17 74 30 81 30 8 0 18 4 23 8 6 5 51 23 100 41 138 50 244 91 309 117
    52 22 103 36 176 51 14 2 45 1 69 -2 39 -6 58 -20 190 -149 157 -152 288 -260
    471 -390 237 -169 399 -267 830 -505 93 -51 507 -259 575 -288 28 -11 93 -40
    145 -63 351 -155 514 -156 1005 -9 239 72 664 224 820 294 17 7 68 29 115 48
    97 40 151 63 268 118 46 22 85 39 88 39 6 0 467 230 479 240 18 14 288 148
    350 173 172 71 341 100 585 101 213 1 329 -7 460 -34 25 -5 68 -12 95 -16 27
    -3 61 -11 75 -16 13 -5 58 -12 100 -15 67 -4 78 -3 109 19 58 39 76 72 76 138
    0 99 -48 138 -224 187 -47 13 -115 33 -151 43 -36 10 -123 34 -193 54 -70 20
    -145 45 -166 56 -92 47 -141 116 -141 201 0 62 11 89 57 140 63 70 102 81 338
    94 55 3 132 7 170 10 39 2 122 7 185 10 303 14 345 23 394 88 34 44 40 101 16
    154 -35 78 -102 104 -254 98 -56 -2 -249 -7 -431 -10 -365 -6 -379 -4 -446 53
    -83 71 -87 166 -10 247 31 34 222 180 352 271 233 162 361 258 380 285 34 48
    37 124 7 169 -37 54 -83 80 -141 80 -50 0 -103 -24 -227 -105 -66 -43 -487
    -304 -524 -325 -151 -84 -202 -68 -408 133 -111 109 -138 140 -143 170 -15 80
    -11 86 438 641 90 111 101 177 44 260 -37 53 -127 72 -190 40 -18 -9 -156
    -139 -307 -289 -345 -341 -378 -362 -510 -320 -80 25 -402 198 -423 227 -25
    34 -37 111 -25 156 5 19 11 42 13 51 2 9 35 111 75 226 136 398 137 402 100
    475 -73 142 -241 116 -317 -50 -86 -187 -258 -529 -297 -589 -46 -71 -84 -104
    -141 -120 -21 -5 -83 0 -200 20 -307 50 -294 47 -337 75 -72 46 -94 118 -103
    339 -3 83 -8 175 -10 205 -2 30 -6 138 -10 240 -4 102 -8 198 -11 214 -16 97
    -104 158 -194 134z m350 -1533 c55 -5 195 -25 275 -39 11 -2 38 -7 60 -10 22
    -4 56 -10 75 -16 82 -21 166 -43 175 -45 8 -1 73 -20 105 -30 3 -1 13 -5 22
    -9 9 -4 22 -9 30 -10 7 -2 21 -6 30 -10 9 -4 22 -9 30 -10 41 -9 78 -22 120
    -42 26 -13 52 -24 58 -24 6 0 54 -20 106 -45 51 -25 96 -45 98 -45 8 0 222
    -124 239 -138 9 -8 17 -12 17 -8 0 14 286 -192 374 -269 130 -113 342 -335
    414 -432 66 -89 122 -191 147 -268 4 -11 10 -27 13 -35 3 -8 6 -58 6 -111 0
    -79 -4 -103 -22 -138 -12 -23 -22 -47 -22 -53 0 -13 -61 -111 -72 -116 -5 -2
    -8 -9 -8 -16 0 -28 -194 -224 -320 -324 -36 -28 -79 -62 -96 -77 -18 -14 -35
    -25 -39 -25 -4 0 -44 -27 -90 -60 -46 -33 -87 -60 -93 -60 -5 0 -15 -6 -21
    -14 -7 -8 -31 -24 -54 -36 -66 -34 -106 -56 -119 -68 -7 -5 -38 -23 -68 -40
    -30 -16 -72 -39 -92 -50 -21 -12 -38 -19 -38 -15 0 3 -8 -1 -18 -10 -10 -10
    -21 -15 -24 -12 -3 3 -11 -1 -18 -10 -7 -8 -19 -15 -27 -15 -8 0 -27 -9 -41
    -19 -15 -10 -31 -20 -37 -22 -23 -6 -137 -55 -225 -96 -89 -42 -139 -63 -152
    -63 -7 0 -26 -7 -43 -16 -28 -15 -98 -42 -120 -47 -5 -2 -15 -6 -21 -9 -6 -4
    -21 -9 -35 -12 -13 -3 -103 -33 -199 -67 -96 -33 -186 -63 -200 -66 -14 -3
    -29 -9 -35 -13 -9 -7 -28 -12 -90 -24 -11 -2 -33 -9 -50 -16 -16 -6 -32 -11
    -35 -10 -3 1 -23 -3 -45 -9 -270 -69 -430 -70 -580 -6 -16 7 -48 18 -70 25
    -22 7 -52 19 -67 27 -15 7 -31 14 -35 13 -5 0 -26 9 -48 19 -77 37 -176 81
    -184 81 -4 0 -34 13 -67 29 -57 29 -161 76 -176 80 -7 2 -288 145 -398 204
    -30 16 -73 40 -95 53 -22 13 -47 27 -55 30 -8 4 -28 17 -45 29 -16 12 -57 36
    -90 54 -33 18 -69 40 -80 50 -11 9 -32 23 -47 31 -15 7 -70 45 -123 84 -52 39
    -113 84 -135 100 -22 17 -40 33 -40 38 0 4 -5 8 -11 8 -6 0 -25 13 -42 29 -18
    15 -63 56 -102 91 -121 108 -270 276 -314 353 -12 23 -29 49 -37 57 -22 25
    -45 88 -59 161 -12 68 -9 116 13 172 7 15 9 27 7 27 -11 0 61 119 113 187 31
    41 69 91 85 111 38 52 359 362 374 362 7 0 16 6 20 14 13 22 323 245 323 232
    0 -4 19 8 43 25 23 17 74 46 112 64 39 19 77 39 85 44 36 22 208 100 235 106
    17 4 39 13 50 20 11 6 54 22 95 35 41 13 94 31 118 41 23 10 52 20 65 22 12 2
    29 6 37 10 8 3 29 9 45 13 17 4 37 9 45 11 8 2 30 6 49 9 19 2 38 7 44 11 5 3
    21 7 36 9 37 5 72 10 106 17 66 14 136 23 235 32 41 3 109 10 150 14 79 9 497
    6 590 -4z" fill="#0EA5E9" />
    <path d="M4008 3325 c-2 -1 -37 -5 -78 -9 -76 -6 -115 -11 -160 -21 -14 -3
    -47 -7 -75 -10 -27 -3 -71 -13 -96 -21 -26 -8 -51 -14 -55 -13 -5 1 -12 0 -16
    -1 -5 -1 -11 -3 -15 -4 -32 -8 -103 -29 -128 -37 -16 -6 -37 -12 -45 -14 -85
    -21 -327 -133 -400 -185 -16 -12 -30 -19 -30 -16 0 6 -87 -53 -121 -82 -41
    -35 -215 -212 -239 -243 -27 -35 -35 -50 -92 -161 -34 -70 -54 -128 -65 -193
    -8 -46 -8 -225 0 -275 7 -43 39 -138 57 -170 5 -8 19 -33 30 -55 54 -100 202
    -261 328 -355 39 -30 72 -58 72 -62 0 -5 5 -8 11 -8 6 0 31 -15 57 -32 85 -60
    339 -188 372 -188 9 0 20 -4 25 -8 8 -7 115 -44 165 -57 3 -1 12 -5 20 -8 8
    -4 24 -8 35 -10 11 -1 26 -6 33 -10 6 -5 12 -6 12 -3 0 2 26 -2 58 -9 33 -8
    71 -16 85 -19 15 -2 31 -7 35 -10 5 -3 31 -8 58 -11 27 -3 63 -7 79 -10 121
    -18 443 -25 575 -12 117 11 214 27 300 48 47 11 94 23 104 25 11 2 40 10 66
    19 26 9 57 17 69 20 12 2 36 11 53 20 17 8 36 15 41 15 6 0 31 9 56 21 25 11
    55 25 66 29 27 12 205 99 232 114 13 7 31 20 41 29 10 10 23 17 28 17 6 0 28
    15 50 33 21 18 55 44 74 58 59 44 203 192 248 256 42 60 111 190 117 222 2 9
    4 16 5 16 1 0 3 7 5 15 2 8 7 29 11 45 9 35 10 234 1 285 -17 107 -58 203
    -132 315 -47 70 -229 256 -274 279 -17 9 -31 21 -31 26 0 6 -6 10 -13 10 -8 0
    -22 9 -32 20 -10 11 -22 20 -27 20 -5 0 -24 11 -41 24 -18 13 -45 30 -62 38
    -16 8 -65 34 -107 57 -43 23 -81 42 -85 43 -13 1 -84 30 -143 57 -24 10 -179
    59 -210 65 -8 2 -22 6 -30 9 -21 8 -108 26 -150 32 -147 19 -210 27 -245 31
    -46 5 -473 13 -477 9z m536 -370 c239 -42 440 -118 672 -255 226 -132 400
    -304 450 -443 26 -70 23 -163 -7 -227 -78 -166 -273 -334 -545 -469 -129 -63
    -306 -128 -389 -142 -5 -1 -20 -5 -31 -10 -12 -4 -42 -10 -65 -14 -24 -3 -66
    -11 -94 -17 -56 -13 -444 -17 -541 -6 -72 8 -75 9 -219 44 -325 78 -618 236
    -827 444 -134 134 -162 186 -162 305 -1 140 50 245 180 372 144 140 351 257
    587 332 160 51 171 54 367 85 136 22 155 24 355 20 105 -2 217 -10 269 -19z" fill="#0EA5E9" />
    <path d="M4045 2689 c-27 -5 -66 -10 -85 -13 -56 -7 -188 -54 -275 -99 -56
    -29 -103 -63 -156 -117 -42 -41 -78 -78 -78 -82 -1 -4 -12 -29 -24 -55 -18
    -39 -22 -67 -22 -143 0 -83 4 -103 27 -153 32 -67 118 -162 195 -213 58 -39
    159 -94 183 -100 8 -2 41 -12 72 -23 95 -33 282 -59 388 -56 110 4 190 13 240
    25 19 5 50 12 69 15 18 3 49 12 67 20 19 8 34 12 34 10 0 -3 42 17 93 43 69
    35 111 66 168 122 82 81 110 131 130 230 29 150 -54 306 -224 422 -103 70
    -266 134 -387 153 -25 4 -54 9 -65 11 -45 9 -303 11 -350 3z m360 -328 c28 -7
    57 -15 65 -18 8 -3 24 -8 35 -10 42 -8 153 -94 173 -133 18 -38 18 -41 2 -77
    -23 -50 -53 -76 -125 -109 -91 -42 -159 -56 -290 -59 -93 -3 -136 1 -190 15
    -240 63 -323 142 -269 256 25 53 132 114 228 130 23 3 47 10 54 13 22 12 262
    5 317 -8z" fill="#0EA5E9" />
  </g>
</svg>
