
<svg xmlns="http://www.w3.org/2000/svg"
 width="558.000000pt" height="597.000000pt" viewBox="0 0 558.000000 597.000000"
 preserveAspectRatio="xMidYMid meet">

<g transform="translate(0.000000,597.000000) scale(0.100000,-0.100000)"
fill="#0EA5E9" stroke="none">
<path d="M4025 5945 c-342 -71 -566 -203 -857 -503 -131 -136 -168 -180 -265
-319 -32 -45 -65 -85 -73 -88 -16 -7 -60 38 -112 114 -59 88 -185 238 -288
345 -227 234 -463 369 -727 416 -92 16 -266 7 -353 -18 -186 -55 -233 -77
-574 -265 -93 -51 -205 -148 -230 -197 -22 -43 -19 -111 6 -154 38 -64 69 -81
147 -80 72 1 78 4 231 112 90 64 228 128 315 147 44 10 92 21 107 26 39 11
235 4 288 -10 25 -7 54 -15 64 -17 39 -7 172 -76 256 -132 127 -85 315 -276
377 -383 65 -111 68 -120 42 -148 -23 -24 -40 -23 -129 5 -61 19 -158 40 -320
70 -170 31 -506 42 -635 20 -44 -8 -102 -17 -130 -20 -27 -4 -58 -9 -67 -12
-9 -3 -26 -7 -38 -9 -70 -13 -296 -94 -375 -133 -268 -134 -517 -410 -668
-739 -5 -12 -7 -49 -5 -84 4 -58 7 -64 51 -105 38 -37 53 -44 89 -46 123 -4
159 19 268 173 176 248 401 416 661 491 183 54 226 60 429 60 135 0 256 -10
341 -28 28 -6 99 -22 149 -33 42 -10 155 -53 200 -76 l32 -17 -27 -14 c-15 -8
-33 -14 -39 -14 -21 0 -259 -80 -316 -106 -305 -141 -416 -215 -617 -407 -235
-227 -431 -520 -512 -768 -41 -127 -24 -248 41 -289 66 -42 172 -49 236 -16
30 15 92 82 92 99 0 5 8 21 18 35 11 15 39 77 63 137 133 335 315 537 624 693
111 56 130 64 300 115 161 50 248 66 259 49 3 -6 -24 -59 -60 -119 -73 -119
-184 -334 -184 -357 0 -8 -4 -17 -9 -20 -13 -9 -97 -268 -115 -357 -9 -42 -18
-83 -20 -90 -12 -37 -30 -248 -31 -359 0 -170 18 -294 67 -465 37 -127 120
-266 257 -430 154 -185 271 -373 322 -518 21 -58 7 -64 -161 -65 -78 -1 -176
-6 -218 -11 -42 -6 -98 -13 -123 -16 -25 -2 -81 -12 -125 -20 -43 -9 -92 -19
-109 -22 -16 -3 -38 -9 -47 -14 -9 -5 -26 -9 -38 -9 -33 0 -392 -123 -522
-179 -290 -124 -497 -252 -642 -394 -96 -96 -113 -132 -91 -203 19 -63 38 -88
83 -112 91 -47 55 -47 1972 -47 1651 0 1998 4 2085 20 71 14 122 65 136 136
12 63 -5 105 -65 167 -46 48 -277 232 -291 232 -4 0 -21 11 -38 24 -69 52
-459 241 -562 272 -5 2 -62 21 -125 42 -63 22 -160 49 -215 62 -55 12 -127 28
-161 36 -33 8 -68 14 -76 14 -22 0 -78 48 -78 67 0 25 -124 255 -191 354 -33
50 -109 145 -167 212 -240 271 -280 326 -345 477 -5 14 -11 27 -12 30 -1 3 -5
12 -8 20 -16 39 -38 134 -51 225 -39 264 -24 415 68 674 40 114 51 137 149
326 41 78 142 211 216 285 74 74 175 149 209 155 9 2 17 4 17 5 0 1 11 4 25 6
207 41 473 -16 700 -149 244 -143 393 -310 499 -560 22 -52 45 -116 51 -142 6
-26 15 -55 20 -65 5 -9 12 -31 15 -49 20 -115 108 -239 171 -242 16 -1 43 -2
59 -3 41 -2 74 12 114 48 52 48 73 105 72 195 -1 100 -33 260 -62 313 -5 10
-9 23 -9 29 0 13 -17 53 -81 185 -83 173 -229 356 -392 493 -128 106 -183 140
-411 253 -56 28 -267 91 -380 114 -48 10 -78 23 -74 35 4 12 68 40 138 60 25
7 50 15 55 18 6 3 15 6 20 8 238 55 353 76 475 88 62 6 283 6 340 0 179 -18
356 -83 490 -179 109 -78 279 -259 354 -375 55 -85 113 -121 195 -121 84 0
127 41 135 126 19 217 -190 533 -484 735 -128 87 -315 177 -402 193 -15 2 -31
7 -36 10 -5 3 -22 8 -38 11 -244 55 -485 50 -854 -14 -63 -12 -127 -23 -142
-25 -38 -7 -106 -25 -153 -41 -217 -74 -256 -77 -281 -26 -16 32 -11 46 55
134 155 208 316 361 487 462 99 59 255 120 334 130 19 3 56 9 81 13 91 17 293
0 380 -33 34 -13 115 -13 168 -1 34 8 88 63 102 103 31 95 -39 188 -201 265
-170 82 -210 93 -360 104 -41 3 -79 7 -85 8 -5 2 -59 -7 -120 -19z m-1145
-5339 c41 -3 84 -8 95 -10 11 -2 49 -7 85 -11 36 -3 79 -9 95 -12 17 -2 44 -6
60 -8 45 -5 98 -14 117 -21 10 -3 30 -7 45 -10 16 -3 46 -10 68 -16 22 -5 41
-10 43 -9 1 1 16 -6 32 -14 16 -8 32 -15 35 -15 20 -1 66 -14 71 -21 3 -5 14
-9 26 -9 11 0 34 -6 51 -14 31 -13 65 -26 70 -25 9 1 186 -93 196 -105 10 -12
6 -16 -21 -25 -22 -6 -449 -9 -1305 -8 -1202 2 -1273 3 -1290 20 -13 13 -15
22 -7 35 10 17 183 109 206 109 7 0 44 12 81 27 38 16 74 29 80 30 7 1 43 12
81 24 38 12 71 20 74 17 3 -3 11 0 17 5 7 5 36 13 66 16 30 3 59 9 64 14 6 4
35 11 65 14 30 3 69 8 85 11 17 3 73 8 125 11 52 4 96 7 97 8 5 4 428 -3 493
-8z"/>
</g>
</svg>
